<?xml version="1.0" encoding="UTF-8" standalone="no"?>
<!-- Created with Inkscape ("http://www.inkscape.org/") -->
<svg xmlns:dc="http://purl.org/dc/elements/1.1/" xmlns:cc="http://creativecommons.org/ns#" xmlns:rdf="http://www.w3.org/1999/02/22-rdf-syntax-ns#" xmlns:svg="http://www.w3.org/2000/svg" xmlns="http://www.w3.org/2000/svg" xmlns:xlink="http://www.w3.org/1999/xlink" xmlns:sodipodi="http://sodipodi.sourceforge.net/DTD/sodipodi-0.dtd" xmlns:inkscape="http://www.inkscape.org/namespaces/inkscape" height="665.38184" id="svg1" inkscape:version="0.46" sodipodi:docbase="C:\tmp\svg\signs\svg" sodipodi:docname="cycles.svg" sodipodi:version="0.32" width="665.38184" inkscape:output_extension="org.inkscape.output.svg.inkscape" version="1.0">
  <metadata id="metadata3">
    <rdf:RDF>
      <cc:Work rdf:about="">
        <dc:title>Road Signs</dc:title>
        <dc:description>UK roadsigns</dc:description>
        <dc:subject>
          <rdf:Bag>
            <rdf:li>transport</rdf:li>
            <rdf:li>roadsign</rdf:li>
          </rdf:Bag>
        </dc:subject>
        <dc:publisher>
          <cc:Agent rdf:about="http://www.openclipart.org">
            <dc:title>John Cliff</dc:title>
          </cc:Agent>
        </dc:publisher>
        <dc:creator>
          <cc:Agent>
            <dc:title>John Cliff</dc:title>
          </cc:Agent>
        </dc:creator>
        <dc:rights>
          <cc:Agent>
            <dc:title>John Cliff</dc:title>
          </cc:Agent>
        </dc:rights>
        <dc:date/>
        <dc:format>image/svg+xml</dc:format>
        <dc:type rdf:resource="http://purl.org/dc/dcmitype/StillImage"/>
        <cc:license rdf:resource="http://web.resource.org/cc/PublicDomain"/>
        <dc:language>en</dc:language>
      </cc:Work>
      <cc:License rdf:about="http://web.resource.org/cc/PublicDomain">
        <cc:permits rdf:resource="http://web.resource.org/cc/Reproduction"/>
        <cc:permits rdf:resource="http://web.resource.org/cc/Distribution"/>
        <cc:permits rdf:resource="http://web.resource.org/cc/DerivativeWorks"/>
      </cc:License>
    </rdf:RDF>
  </metadata>
  <defs id="defs3">
    <inkscape:perspective sodipodi:type="inkscape:persp3d" inkscape:vp_x="0 : 526.18109 : 1" inkscape:vp_y="0 : 1000 : 0" inkscape:vp_z="744.09448 : 526.18109 : 1" inkscape:persp3d-origin="372.04724 : 350.78739 : 1" id="perspective25"/>
    <linearGradient id="linearGradient587">
      <stop id="stop588" offset="0" style="stop-color: rgb(0, 0, 0); stop-opacity: 1;"/>
      <stop id="stop589" offset="1" style="stop-color: rgb(255, 255, 255); stop-opacity: 1;"/>
    </linearGradient>
    <linearGradient id="linearGradient590" xlink:href="#linearGradient587"/>
    <radialGradient cx="0.5" cy="0.5" fx="0.5" fy="0.5" id="radialGradient598" r="0.5" xlink:href="#linearGradient587"/>
  </defs>
  <sodipodi:namedview bordercolor="#666666" borderopacity="1.0" id="base" inkscape:cx="351.97382" inkscape:cy="523.16045" inkscape:pageopacity="0.0" inkscape:pageshadow="2" inkscape:window-height="721" inkscape:window-width="1024" inkscape:window-x="44" inkscape:window-y="45" inkscape:zoom="0.86831325" pagecolor="#ffffff" showgrid="false" inkscape:current-layer="svg1"/>
  <g id="g604" transform="translate(-39.4368, -68.2668)">
    <path d="M 827.75111,586.66223 A 248.32533,248.32533 0 1 1 331.10045,586.66223 A 248.32533,248.32533 0 1 1 827.75111,586.66223 z" id="path586" sodipodi:cx="579.42578" sodipodi:cy="586.66223" sodipodi:rx="248.32533" sodipodi:ry="248.32533" sodipodi:type="arc" style="fill: rgb(255, 255, 255); fill-opacity: 1; fill-rule: evenodd; stroke: rgb(0, 117, 189); stroke-width: 5.66193; stroke-linecap: butt; stroke-linejoin: miter; stroke-dasharray: none; stroke-opacity: 1;" transform="matrix(1.32464, 0, 0, 1.32464, -395.401, -376.157)"/>
    <path d="M 827.75111,586.66223 A 248.32533,248.32533 0 1 1 331.10045,586.66223 A 248.32533,248.32533 0 1 1 827.75111,586.66223 z" id="path591" sodipodi:cx="579.42578" sodipodi:cy="586.66223" sodipodi:rx="248.32533" sodipodi:ry="248.32533" sodipodi:type="arc" style="fill: rgb(0, 117, 189); fill-opacity: 1; fill-rule: evenodd; stroke: rgb(0, 117, 189); stroke-width: 5.66193; stroke-linecap: butt; stroke-linejoin: miter; stroke-dasharray: none; stroke-opacity: 1;" transform="matrix(1.25507, 0, 0, 1.25507, -355.093, -335.346)"/>
    <path d="M 262.62597,328.61386 L 464.17614,329.63179 L 535.43125,461.96271 L 399.02861,461.96271 L 256.51839,365.25935" id="path594" sodipodi:nodetypes="ccccc" style="fill: none; fill-opacity: 0.75; fill-rule: evenodd; stroke: rgb(255, 255, 255); stroke-width: 20.875; stroke-linecap: butt; stroke-linejoin: round; stroke-dasharray: none; stroke-opacity: 1;"/>
    <path d="M 270.37077,249.30802 C 259.42294,249.30802 251.14779,249.06376 242.66587,262.02163 C 240.22437,266.34121 239.10811,271.6154 240.00962,276.86538 C 241.09108,282.83514 244.62541,288.70033 248.7919,292.1724 C 254.30909,296.77007 259.54501,296.41538 258.69883,300.54843 C 257.61308,305.85159 254.29959,313.22102 250.71875,325.1875 C 247.08395,337.33429 242.76789,352.20079 238.53125,366.84375 C 234.29461,381.48671 230.13577,395.91405 226.84375,407.15625 C 225.19774,412.77735 223.76017,417.604 222.65625,421.21875 C 221.5807,424.74061 220.63108,427.47631 220.71875,427.28125 C 217.28896,433.31573 216.82208,437.2478 211.06922,442.38396 C 204.61903,448.02912 199.36735,452.19943 197.5447,453.47336 C 192.9153,456.8363 190.76315,463.93342 193.20779,467.44015 C 196.28863,472.21929 202.6514,472.95237 207.30176,471.52261 C 211.71737,470.12091 218.70726,467.71318 226.8125,461 L 226.875,460.90625 L 226.96875,460.84375 C 238.24677,451.17008 242.41917,439.42932 242.84375,438.75 L 243.4375,437.84375 L 243.84375,436.84375 C 244.82102,434.43815 245.40636,432.317 246.5625,428.53125 C 247.71864,424.7455 249.18427,419.85462 250.84375,414.1875 C 254.16272,402.85327 258.30046,388.40398 262.53125,373.78125 C 266.76204,359.15852 271.06756,344.3677 274.65625,332.375 C 278.24494,320.3823 280.51216,310.53277 281.35027,308.4375 C 283.39015,303.33781 284.43225,297.83229 283.03777,292.3125 C 281.64329,286.79271 277.47622,282.3378 273.73557,281.3022 C 265.19726,278.91346 267.46277,272.77194 271.83107,272.76304 L 308.43704,272.6885 L 308.52727,249.30852 C 308.52702,249.30802 284.76644,249.30802 270.37077,249.30802 z" id="path593" sodipodi:nodetypes="ccccscccccsscsccccccccccccssccc" style="fill: rgb(255, 255, 255); fill-opacity: 1; fill-rule: evenodd; stroke: none; stroke-width: 25; stroke-linecap: round; stroke-linejoin: miter; stroke-dasharray: none; stroke-opacity: 1;"/>
    <path d="M 278.91286,461.96271 A 78.380615,78.380615 0 1 1 122.15163,461.96271 A 78.380615,78.380615 0 1 1 278.91286,461.96271 z" id="path595" sodipodi:cx="200.53224" sodipodi:cy="461.96271" sodipodi:rx="78.380615" sodipodi:ry="78.380615" sodipodi:type="arc" style="fill: none; fill-opacity: 0.75; fill-rule: evenodd; stroke: rgb(255, 255, 255); stroke-width: 26; stroke-linecap: butt; stroke-linejoin: miter; stroke-dasharray: none; stroke-opacity: 1;"/>
    <path d="M 278.91286,461.96271 A 78.380615,78.380615 0 1 1 122.15163,461.96271 A 78.380615,78.380615 0 1 1 278.91286,461.96271 z" id="path596" sodipodi:cx="200.53224" sodipodi:cy="461.96271" sodipodi:rx="78.380615" sodipodi:ry="78.380615" sodipodi:type="arc" style="fill: none; fill-opacity: 0.75; fill-rule: evenodd; stroke: rgb(255, 255, 255); stroke-width: 26; stroke-linecap: butt; stroke-linejoin: miter; stroke-dasharray: none; stroke-opacity: 1;" transform="translate(335.917, 1.5269)"/>
    <path d="M 401.64028,457.81941 L 470.73968,288.66983" id="path599" style="fill: none; fill-opacity: 0.75; fill-rule: evenodd; stroke: rgb(255, 255, 255); stroke-width: 25; stroke-linecap: butt; stroke-linejoin: miter; stroke-dasharray: none; stroke-opacity: 1;"/>
    <path d="M 370.6895,403.83551 L 426.83276,522.6001" id="path600" style="fill: none; fill-opacity: 0.75; fill-rule: evenodd; stroke: rgb(255, 255, 255); stroke-width: 9.125; stroke-linecap: round; stroke-linejoin: miter; stroke-dasharray: none; stroke-opacity: 1;"/>
    <path d="M 278.91286,461.96271 A 78.380615,78.380615 0 1 1 122.15163,461.96271 A 78.380615,78.380615 0 1 1 278.91286,461.96271 z" id="path597" sodipodi:cx="200.53224" sodipodi:cy="461.96271" sodipodi:rx="78.380615" sodipodi:ry="78.380615" sodipodi:type="arc" style="fill: rgb(0, 117, 189); fill-opacity: 1; fill-rule: evenodd; stroke: rgb(255, 255, 255); stroke-width: 31.305; stroke-linecap: butt; stroke-linejoin: miter; stroke-dasharray: none; stroke-opacity: 1;" transform="matrix(0.392857, 0, 0, 0.405844, 321.012, 274.732)"/>
    <path d="M 355.70125,407.47809 L 392.58121,407.81615" id="path601" sodipodi:nodetypes="cc" style="fill: none; fill-opacity: 0.75; fill-rule: evenodd; stroke: rgb(255, 255, 255); stroke-width: 12.75; stroke-linecap: butt; stroke-linejoin: miter; stroke-dasharray: none; stroke-opacity: 1;"/>
    <path d="M 408.03233,517.60595 L 444.91229,517.94401" id="path602" sodipodi:nodetypes="cc" style="fill: none; fill-opacity: 0.75; fill-rule: evenodd; stroke: rgb(255, 255, 255); stroke-width: 12.75; stroke-linecap: butt; stroke-linejoin: miter; stroke-dasharray: none; stroke-opacity: 1;"/>
    <path d="M 504.56994,273.55381 L 417.83573,273.55381 C 414.59669,273.55381 410.41609,279.28343 414.5967,283.09097 C 419.1182,287.3942 459.76326,296.22706 459.76326,296.22706 C 459.76326,296.22706 470.91995,299.28615 476.85818,298.56637 C 482.79641,297.84658 503.31031,296.04712 504.56994,273.55381 z" id="path603" sodipodi:nodetypes="cssccc" style="fill: rgb(255, 255, 255); fill-opacity: 1; fill-rule: evenodd; stroke: rgb(255, 255, 255); stroke-width: 1pt; stroke-linecap: butt; stroke-linejoin: miter; stroke-opacity: 1;"/>
  </g>
</svg>